<svg width="1080" height="302" viewBox="0 0 1080 302" fill="none" xmlns="http://www.w3.org/2000/svg">
<path d="M1578.13 1462.44L1578.13 1719.77L-435.451 1719.77C-714.48 1144.31 -877.781 443.705 -877.781 -311.757L350.253 -311.757C350.253 178.225 487.938 621.72 709.789 942.94C932.097 1263.5 1239.03 1462.44 1578.13 1462.44Z" stroke="#F6946C" stroke-width="12" stroke-miterlimit="10" stroke-linecap="round" stroke-linejoin="round"/>
<path d="M1119.38 829.292C1048.22 593.948 761.907 -276.673 91.0469 -665.546C-176.695 -820.756 -423.216 -851.587 -598.482 -848.475C-823.71 -660.843 -1049.16 -473.029 -1274.38 -285.396L-1834.07 180.863C-1524.56 41.5383 -878.58 -181.393 -94.5544 64.45C464.229 239.46 875.262 584.63 1119.38 829.292Z" stroke="#F1DB8D" stroke-width="18" stroke-miterlimit="10" stroke-linecap="round" stroke-linejoin="round"/>
</svg>
