<svg width="327" height="447" viewBox="0 0 327 447" fill="none" xmlns="http://www.w3.org/2000/svg">
<path d="M1972.01 1342.45L1972.01 1601.27L-1359.14 1601.27C-1820.75 1022.48 -2090.91 317.813 -2090.91 -442.026L-59.3204 -442.027C-59.3203 50.7944 168.458 496.859 535.475 819.941C903.249 1142.36 1411.02 1342.45 1972.01 1342.45Z" stroke="#121212" stroke-opacity="0.25" stroke-width="12" stroke-miterlimit="10" stroke-linecap="round" stroke-linejoin="round"/>
<path d="M1213.08 705.634C1095.37 468.926 621.708 -406.74 -488.123 -797.866C-931.059 -953.975 -1338.89 -984.985 -1628.84 -981.854C-2001.44 -793.135 -2374.41 -604.232 -2747.01 -415.513L-3672.91 53.4484C-3160.88 -86.6839 -2092.22 -310.907 -795.171 -63.6396C129.247 112.385 809.237 459.554 1213.08 705.634Z" stroke="#F1DB8D" stroke-width="18" stroke-miterlimit="10" stroke-linecap="round" stroke-linejoin="round"/>
</svg>
