<svg width="263" height="568" viewBox="0 0 263 568" fill="none" xmlns="http://www.w3.org/2000/svg">
<mask id="mask0_2557_8066" style="mask-type:alpha" maskUnits="userSpaceOnUse" x="0" y="0" width="263" height="568">
<path d="M58.8265 5.3348C58.8265 5.22526 58.8265 5.1705 58.8255 5.12419C58.7758 2.78309 56.8891 0.89751 54.548 0.849271C54.5017 0.848317 54.4469 0.84835 54.3374 0.848416L45.9462 0.853487C29.8774 0.863198 21.843 0.868054 15.7503 4.09725C10.8334 6.70321 6.81287 10.7262 4.20989 15.6446C0.984375 21.7393 0.984375 29.7737 0.984375 45.8425V522.025C0.984375 538.102 0.984375 546.141 4.21232 552.238C6.81725 557.158 10.8407 561.181 15.7605 563.786C21.857 567.014 29.8958 567.014 45.9734 567.014H217.465C233.542 567.014 241.581 567.014 247.678 563.786C252.597 561.181 256.621 557.158 259.226 552.238C262.454 546.141 262.454 538.143 262.454 522.148C262.454 375.255 262.454 142.707 262.454 45.6775C262.454 29.7141 262.454 21.7324 259.223 15.6341C256.617 10.713 252.591 6.68915 247.668 4.08519C241.568 0.85841 233.525 0.86294 217.439 0.872L209.089 0.876703C208.986 0.876761 208.934 0.876791 208.89 0.877697C206.547 0.926107 204.66 2.81453 204.612 5.15746C204.612 5.20134 204.612 5.25323 204.612 5.35699C204.612 5.73518 204.612 5.92427 204.608 6.08421C204.437 14.6225 197.556 21.5032 189.018 21.6748C188.858 21.678 188.669 21.678 188.29 21.678H75.1697C74.7709 21.678 74.5715 21.678 74.4029 21.6745C65.8782 21.4937 59.0108 14.6263 58.83 6.10163C58.8265 5.93299 58.8265 5.73359 58.8265 5.3348Z" fill="#6BC127"/>
</mask>
<g mask="url(#mask0_2557_8066)">
<g clip-path="url(#clip0_2557_8066)">
<rect x="1.3125" y="0.740234" width="261.469" height="565.701" rx="12.6566" fill="white"/>
</g>
</g>
<defs>
<clipPath id="clip0_2557_8066">
<rect x="1.3125" y="0.740234" width="261.469" height="565.701" rx="12.6566" fill="white"/>
</clipPath>
</defs>
</svg>
